<svg xmlns="http://www.w3.org/2000/svg" fill="white" viewBox="83.69999694824219 62.55912780761719 34.099998474121094 40.64087677001953"><path stroke-width="4" d="M83.7 80.2c.5-.8.9-1.5 1.4-2.2 3.5-4.9 7.5-9.4 11.8-13.7.2-.2.4-.5.7-.7 1.2-1.3 2.1-1.4 3.5-.2 4.4 3.6 8.7 7.2 13 10.9 1.2 1.1 2.4 2.3 3.7 3.5-.5.7-.9 1.4-1.5 2.3-5.3-4-9.7-8.9-15-12.8 0 .3-.1.5-.1.7.2 3.4.5 6.8.8 10.3.2 3.1.4 6.3.7 9.4.5 4.7.3 9.5.5 14.2v1.3h-2.9c-.1-.4-.2-1-.2-1.5-.2-2.3-.4-4.5-.5-6.8-.3-4.6-.5-9.2-.8-13.9-.2-3.1-.4-6.1-.6-9.2-.1-1.1 0-2.1 0-3.4-.4.4-.7.6-.9.9-2.4 2.7-4.7 5.5-7.2 8.2-1.1 1.2-2.3 2.3-3.5 3.3-1.1.7-1.7.5-2.9-.6z"></path></svg>
