<svg xmlns="http://www.w3.org/2000/svg" viewBox="0 0 115.62 118.1"><defs><style>.cls-1{fill:#f8f8f8;}</style></defs><g id="Layer_2" data-name="Layer 2"><g id="Laag_1" data-name="Laag 1"><path class="cls-1" d="M9.85,108.39c.78-2.13,2-6.37,3.82-10.33A145.53,145.53,0,0,1,22.1,81.91c2.22-3.55,1.28-5.76-1.55-7.93-4.74-3.62-10-6.75-14.09-11-3-3-4.6-7.43-6.45-11.39-.16-.33,2.5-2.77,4-2.93q13.83-1.5,27.74-2.31c5-.3,7-2.53,8.61-7.38,4.08-12,9.16-23.64,14.28-35.24.83-1.87,3.81-3.43,6-3.76,1-.15,3.17,2.93,3.63,4.83,2.62,10.9,5.14,21.85,7.13,32.88.67,3.68,2.35,4.35,5.33,4.06,10.53-1.05,21.13-1.69,31.55-3.43,4.8-.8,4.89,2.63,6.15,4.79s2.25,4.62-.87,6.93C103.11,57.8,93,66,82.54,73.66c-2.61,1.93-3.05,3.61-2.5,6.63,1.71,9.41,3.36,18.86,4.33,28.36.5,4.92-3.66,7-8,4.57-8.06-4.49-16.4-8.6-23.93-13.87-3.76-2.62-5.92-.68-8.2.73-8.13,5-16,10.42-24,15.72C14.87,119.38,10.16,120,9.85,108.39ZM48.16,82.73C52,80.22,55,78.18,58,76.22c10.65-6.8,10.65-6.78,8.58-18.84-.09-.49,0-1.18-.25-1.43-1-.88-2.13-2.29-3.18-2.26-5.2.13-10.4.52-15.56,1.14a4.61,4.61,0,0,0-3.1,2.44c-2.42,5.76-4.57,11.64-7,17.9Zm1.13-38.51L62.94,43c-1.59-7.27-3-13.92-4.79-22C55,29.32,52.29,36.35,49.29,44.22ZM71.23,81.59,59,90l16.28,9Zm-54.94-24,12.59,9.86L34.17,56Zm73.65-5.11H74.61L77,62.19ZM26.24,96.8l1,.91,12.05-8.23-6.47-4.69Z"/></g></g></svg>